<svg id="svg" version="1.1" width="400" height="322.25579053373616" xmlns="http://www.w3.org/2000/svg" xmlns:xlink="http://www.w3.org/1999/xlink" style="display: block;"><g id="svgg"><path id="path0" d="M85.790 217.069 L 85.096 217.825 85.851 217.131 C 86.554 216.485,86.699 216.314,86.545 216.314 C 86.511 216.314,86.172 216.654,85.790 217.069 M0.089 247.793 C -0.297 248.799,0.138 304.509,0.545 306.143 C 1.817 311.254,3.878 314.777,7.212 317.543 C 18.338 326.773,35.269 321.981,39.556 308.390 C 41.138 303.373,41.450 288.235,40.081 282.883 C 36.886 270.391,22.992 265.160,12.240 272.401 C 10.149 273.809,10.272 274.570,10.272 260.247 C 10.272 251.003,10.213 247.957,10.030 247.774 C 9.669 247.414,0.228 247.431,0.089 247.793 M359.355 247.774 C 359.034 248.096,359.001 320.058,359.322 320.658 C 359.583 321.145,369.013 321.275,369.323 320.796 C 369.413 320.657,369.535 313.066,369.594 303.927 C 369.712 285.635,369.651 286.522,370.997 283.630 C 374.034 277.103,384.922 276.781,388.261 283.119 C 389.616 285.689,389.591 285.325,389.674 303.819 C 389.726 315.276,389.817 320.610,389.965 320.788 C 390.191 321.060,399.005 321.184,399.681 320.925 C 400.224 320.717,400.157 287.153,399.607 283.958 C 398.515 277.614,395.613 273.596,390.243 270.989 C 383.941 267.930,377.560 268.554,370.692 272.901 C 369.568 273.612,369.587 273.827,369.587 260.486 C 369.587 252.479,369.516 248.179,369.379 247.922 C 369.123 247.444,359.823 247.307,359.355 247.774 M233.365 256.964 C 233.069 257.291,233.031 258.049,233.031 263.571 C 233.031 268.154,232.967 269.873,232.790 270.050 C 232.623 270.217,231.614 270.292,229.554 270.292 C 225.460 270.292,225.780 269.944,225.780 274.388 C 225.780 278.920,225.456 278.550,229.421 278.550 C 231.762 278.550,232.635 278.617,232.796 278.811 C 232.945 278.991,233.033 283.873,233.080 294.471 C 233.154 311.650,233.077 310.668,234.614 313.897 C 237.218 319.366,241.975 322.021,249.500 322.204 C 254.444 322.325,253.979 322.788,253.975 317.750 C 253.971 312.667,254.316 313.115,250.310 312.984 C 246.478 312.858,245.375 312.464,244.216 310.809 L 243.605 309.935 243.550 294.521 C 243.509 283.154,243.555 279.033,243.726 278.828 C 243.910 278.606,244.919 278.550,248.759 278.550 C 254.533 278.550,253.978 278.995,253.978 274.365 C 253.978 269.900,254.494 270.292,248.615 270.292 C 245.285 270.292,243.920 270.224,243.746 270.050 C 243.569 269.873,243.505 268.142,243.505 263.519 C 243.505 258.070,243.462 257.187,243.188 256.913 C 242.672 256.397,233.836 256.444,233.365 256.964 M68.379 269.216 C 58.536 270.384,51.726 277.083,50.264 287.035 C 49.461 292.500,49.900 304.065,51.060 308.056 C 55.789 324.312,78.152 327.381,87.752 313.092 C 90.264 309.352,90.372 309.558,84.641 307.150 C 80.170 305.271,80.313 305.268,79.378 307.266 C 76.498 313.421,68.150 314.861,63.319 310.036 C 61.341 308.061,60.526 305.622,60.294 300.989 C 60.108 297.275,58.194 297.684,75.750 297.684 C 88.587 297.684,90.415 297.646,90.637 297.378 C 91.454 296.395,90.560 286.114,89.348 282.546 C 86.405 273.883,77.382 268.147,68.379 269.216 M120.409 269.276 C 117.721 269.769,115.764 270.626,112.973 272.534 C 110.599 274.156,110.171 274.086,110.171 272.079 C 110.171 270.256,110.273 270.292,105.108 270.292 C 102.440 270.292,100.524 270.375,100.289 270.501 C 99.738 270.795,99.668 320.714,100.218 320.925 C 100.896 321.185,109.709 321.060,109.935 320.787 C 110.084 320.608,110.174 315.404,110.225 304.120 C 110.292 289.129,110.330 287.592,110.661 286.304 C 113.464 275.400,128.093 275.991,130.004 287.086 C 130.263 288.587,130.312 291.396,130.312 304.571 C 130.312 315.006,130.382 320.399,130.521 320.658 C 130.777 321.136,140.076 321.273,140.544 320.806 C 140.728 320.622,140.786 316.798,140.789 304.844 C 140.794 288.716,140.850 287.348,141.612 285.042 C 143.904 278.103,152.982 276.225,158.048 281.641 C 160.830 284.615,160.924 285.380,160.925 305.045 C 160.926 316.845,160.984 320.622,161.168 320.806 C 161.343 320.980,162.745 321.047,166.208 321.047 L 171.007 321.047 171.219 320.493 C 171.605 319.484,171.325 286.689,170.913 284.592 C 169.565 277.742,166.523 273.589,160.878 270.890 C 153.559 267.391,144.183 269.410,139.264 275.543 C 137.949 277.182,138.000 277.189,135.937 275.043 C 131.705 270.639,125.513 268.339,120.409 269.276 M198.122 269.282 C 192.861 269.948,187.641 271.913,183.787 274.679 C 181.526 276.301,181.492 276.136,184.915 280.262 C 188.569 284.667,188.026 284.390,190.208 282.958 C 199.513 276.849,208.661 279.131,208.661 287.562 C 208.661 290.197,208.977 290.030,203.971 290.031 C 187.013 290.034,178.530 295.384,178.105 306.344 C 177.733 315.965,184.249 322.150,194.763 322.154 C 199.961 322.156,201.978 321.543,206.109 318.706 C 208.288 317.210,208.661 317.323,208.661 319.483 C 208.661 320.078,208.769 320.673,208.902 320.806 C 209.278 321.181,218.399 321.146,218.712 320.768 C 218.885 320.560,218.930 315.678,218.888 301.785 L 218.832 283.082 218.182 281.168 C 215.336 272.787,207.433 268.104,198.122 269.282 M278.046 269.361 C 270.158 270.663,264.032 275.933,261.862 283.283 C 260.131 289.143,260.181 302.767,261.953 308.386 C 267.305 325.354,291.228 327.210,299.618 311.308 C 300.665 309.323,300.708 309.370,296.047 307.412 C 290.817 305.216,291.152 305.224,290.140 307.273 C 286.050 315.547,274.218 314.564,271.694 305.740 C 271.138 303.795,270.874 298.253,271.323 297.964 C 271.476 297.865,278.308 297.739,286.506 297.684 L 301.410 297.583 301.407 292.548 C 301.404 286.979,301.123 284.987,299.884 281.772 C 296.590 273.222,287.154 267.858,278.046 269.361 M328.348 269.284 C 320.719 270.361,314.486 275.435,312.059 282.546 C 309.608 289.725,310.056 304.947,312.894 310.938 C 319.943 325.819,341.857 326.052,349.529 311.328 C 350.629 309.216,350.768 309.329,343.435 306.351 C 341.081 305.394,340.964 305.427,340.069 307.288 C 335.997 315.754,323.992 314.492,321.504 305.337 C 320.960 303.337,320.969 287.942,321.515 286.018 C 324.117 276.846,335.913 275.754,340.181 284.290 C 341.102 286.132,341.008 286.134,345.649 284.188 C 350.823 282.017,350.745 282.129,349.070 279.278 C 345.031 272.407,336.247 268.170,328.348 269.284 M23.162 278.886 C 26.890 279.905,29.385 282.883,30.122 287.194 C 30.659 290.340,30.448 303.663,29.828 305.740 C 26.813 315.832,13.154 315.262,10.730 304.943 C 10.136 302.415,10.217 288.348,10.839 286.110 C 12.456 280.287,17.489 277.337,23.162 278.886 M73.112 278.886 C 77.123 279.982,80.161 283.976,80.161 288.152 C 80.161 289.692,80.596 289.627,70.236 289.627 C 59.578 289.627,60.264 289.769,60.507 287.622 C 61.238 281.159,66.946 277.202,73.112 278.886 M283.681 278.791 C 287.577 279.773,290.513 283.368,290.957 287.697 C 291.169 289.769,291.881 289.627,281.241 289.627 C 270.894 289.627,271.299 289.686,271.299 288.189 C 271.299 281.869,277.430 277.215,283.681 278.791 M208.452 298.678 C 208.758 299.249,208.700 303.610,208.365 305.190 C 207.282 310.300,203.029 313.022,196.073 313.059 C 192.520 313.078,191.533 312.777,190.118 311.241 C 186.223 307.016,189.076 300.945,195.828 299.093 C 199.100 298.195,208.037 297.901,208.452 298.678 " stroke="none" fill="#373435" fill-rule="evenodd"></path><path id="path1" d="M300.604 0.128 C 211.449 6.891,126.129 97.348,136.778 173.817 C 147.824 253.133,256.197 261.204,335.347 188.605 C 408.076 121.896,410.707 27.961,340.497 4.741 C 329.553 1.122,312.897 -0.804,300.604 0.128 M275.304 51.669 C 313.963 57.068,317.089 106.710,281.079 143.370 C 246.382 178.694,197.687 179.172,188.617 144.278 C 177.729 102.391,230.999 45.482,275.304 51.669 M74.522 127.823 C 30.804 132.039,-6.993 193.628,14.462 225.688 C 30.944 250.317,74.414 238.161,97.733 202.402 C 122.266 164.781,109.707 124.430,74.522 127.823 " stroke="none" fill="#b9d40f" fill-rule="evenodd"></path></g></svg>